<mxfile host="65bd71144e">
    <diagram id="W9HoKVLfJ79cSEUrWKm8" name="Page-1">
        <mxGraphModel dx="2376" dy="795" grid="1" gridSize="10" guides="1" tooltips="1" connect="1" arrows="1" fold="1" page="1" pageScale="1" pageWidth="850" pageHeight="1100" math="0" shadow="0">
            <root>
                <mxCell id="0"/>
                <mxCell id="1" parent="0"/>
                <mxCell id="11" value="" style="rounded=0;whiteSpace=wrap;html=1;" vertex="1" parent="1">
                    <mxGeometry x="70" y="160" width="60" height="500" as="geometry"/>
                </mxCell>
                <mxCell id="2" value="5" style="rounded=0;whiteSpace=wrap;html=1;" vertex="1" parent="1">
                    <mxGeometry x="80" y="200" width="40" height="40" as="geometry"/>
                </mxCell>
                <mxCell id="3" value="8" style="rounded=0;whiteSpace=wrap;html=1;" vertex="1" parent="1">
                    <mxGeometry x="80" y="300" width="40" height="40" as="geometry"/>
                </mxCell>
                <mxCell id="4" value="11" style="rounded=0;whiteSpace=wrap;html=1;" vertex="1" parent="1">
                    <mxGeometry x="80" y="350" width="40" height="40" as="geometry"/>
                </mxCell>
                <mxCell id="5" value="1" style="rounded=0;whiteSpace=wrap;html=1;" vertex="1" parent="1">
                    <mxGeometry x="80" y="400" width="40" height="40" as="geometry"/>
                </mxCell>
                <mxCell id="6" value="14" style="rounded=0;whiteSpace=wrap;html=1;" vertex="1" parent="1">
                    <mxGeometry x="80" y="250" width="40" height="40" as="geometry"/>
                </mxCell>
                <mxCell id="7" value="26" style="rounded=0;whiteSpace=wrap;html=1;" vertex="1" parent="1">
                    <mxGeometry x="80" y="450" width="40" height="40" as="geometry"/>
                </mxCell>
                <mxCell id="8" value="53" style="rounded=0;whiteSpace=wrap;html=1;" vertex="1" parent="1">
                    <mxGeometry x="80" y="500" width="40" height="40" as="geometry"/>
                </mxCell>
                <mxCell id="9" value="2" style="rounded=0;whiteSpace=wrap;html=1;" vertex="1" parent="1">
                    <mxGeometry x="80" y="550" width="40" height="40" as="geometry"/>
                </mxCell>
                <mxCell id="10" value="17" style="rounded=0;whiteSpace=wrap;html=1;" vertex="1" parent="1">
                    <mxGeometry x="80" y="600" width="40" height="40" as="geometry"/>
                </mxCell>
                <mxCell id="12" value="" style="rounded=0;whiteSpace=wrap;html=1;" vertex="1" parent="1">
                    <mxGeometry x="190" y="160" width="140" height="500" as="geometry"/>
                </mxCell>
                <mxCell id="13" value="5" style="rounded=0;whiteSpace=wrap;html=1;" vertex="1" parent="1">
                    <mxGeometry x="280" y="400" width="40" height="40" as="geometry"/>
                </mxCell>
                <mxCell id="14" value="8" style="rounded=0;whiteSpace=wrap;html=1;" vertex="1" parent="1">
                    <mxGeometry x="280" y="350" width="40" height="40" as="geometry"/>
                </mxCell>
                <mxCell id="15" value="11" style="rounded=0;whiteSpace=wrap;html=1;" vertex="1" parent="1">
                    <mxGeometry x="200" y="300" width="40" height="40" as="geometry"/>
                </mxCell>
                <mxCell id="16" value="1" style="rounded=0;whiteSpace=wrap;html=1;" vertex="1" parent="1">
                    <mxGeometry x="280" y="300" width="40" height="40" as="geometry"/>
                </mxCell>
                <mxCell id="17" value="14" style="rounded=0;whiteSpace=wrap;html=1;" vertex="1" parent="1">
                    <mxGeometry x="200" y="250" width="40" height="40" as="geometry"/>
                </mxCell>
                <mxCell id="18" value="26" style="rounded=0;whiteSpace=wrap;html=1;" vertex="1" parent="1">
                    <mxGeometry x="200" y="350" width="40" height="40" as="geometry"/>
                </mxCell>
                <mxCell id="19" value="53" style="rounded=0;whiteSpace=wrap;html=1;" vertex="1" parent="1">
                    <mxGeometry x="200" y="400" width="40" height="40" as="geometry"/>
                </mxCell>
                <mxCell id="20" value="2" style="rounded=0;whiteSpace=wrap;html=1;" vertex="1" parent="1">
                    <mxGeometry x="280" y="250" width="40" height="40" as="geometry"/>
                </mxCell>
                <mxCell id="21" value="17" style="rounded=0;whiteSpace=wrap;html=1;" vertex="1" parent="1">
                    <mxGeometry x="200" y="450" width="40" height="40" as="geometry"/>
                </mxCell>
                <mxCell id="22" value="" style="rounded=0;whiteSpace=wrap;html=1;" vertex="1" parent="1">
                    <mxGeometry x="360" y="160" width="140" height="500" as="geometry"/>
                </mxCell>
                <mxCell id="23" value="5" style="rounded=0;whiteSpace=wrap;html=1;" vertex="1" parent="1">
                    <mxGeometry x="450" y="300" width="40" height="40" as="geometry"/>
                </mxCell>
                <mxCell id="24" value="8" style="rounded=0;whiteSpace=wrap;html=1;" vertex="1" parent="1">
                    <mxGeometry x="450" y="250" width="40" height="40" as="geometry"/>
                </mxCell>
                <mxCell id="25" value="11" style="rounded=0;whiteSpace=wrap;html=1;" vertex="1" parent="1">
                    <mxGeometry x="370" y="400" width="40" height="40" as="geometry"/>
                </mxCell>
                <mxCell id="26" value="1" style="rounded=0;whiteSpace=wrap;html=1;" vertex="1" parent="1">
                    <mxGeometry x="370" y="250" width="40" height="40" as="geometry"/>
                </mxCell>
                <mxCell id="27" value="14" style="rounded=0;whiteSpace=wrap;html=1;" vertex="1" parent="1">
                    <mxGeometry x="370" y="350" width="40" height="40" as="geometry"/>
                </mxCell>
                <mxCell id="28" value="26" style="rounded=0;whiteSpace=wrap;html=1;" vertex="1" parent="1">
                    <mxGeometry x="370" y="450" width="40" height="40" as="geometry"/>
                </mxCell>
                <mxCell id="29" value="53" style="rounded=0;whiteSpace=wrap;html=1;" vertex="1" parent="1">
                    <mxGeometry x="370" y="500" width="40" height="40" as="geometry"/>
                </mxCell>
                <mxCell id="30" value="2" style="rounded=0;whiteSpace=wrap;html=1;" vertex="1" parent="1">
                    <mxGeometry x="370" y="300" width="40" height="40" as="geometry"/>
                </mxCell>
                <mxCell id="31" value="17" style="rounded=0;whiteSpace=wrap;html=1;" vertex="1" parent="1">
                    <mxGeometry x="370" y="550" width="40" height="40" as="geometry"/>
                </mxCell>
                <mxCell id="52" value="" style="rounded=0;whiteSpace=wrap;html=1;" vertex="1" parent="1">
                    <mxGeometry x="520" y="160" width="140" height="500" as="geometry"/>
                </mxCell>
                <mxCell id="53" value="5" style="rounded=0;whiteSpace=wrap;html=1;" vertex="1" parent="1">
                    <mxGeometry x="610" y="250" width="40" height="40" as="geometry"/>
                </mxCell>
                <mxCell id="54" value="8" style="rounded=0;whiteSpace=wrap;html=1;" vertex="1" parent="1">
                    <mxGeometry x="610" y="300" width="40" height="40" as="geometry"/>
                </mxCell>
                <mxCell id="55" value="11" style="rounded=0;whiteSpace=wrap;html=1;" vertex="1" parent="1">
                    <mxGeometry x="530" y="400" width="40" height="40" as="geometry"/>
                </mxCell>
                <mxCell id="56" value="1" style="rounded=0;whiteSpace=wrap;html=1;" vertex="1" parent="1">
                    <mxGeometry x="530" y="300" width="40" height="40" as="geometry"/>
                </mxCell>
                <mxCell id="57" value="14" style="rounded=0;whiteSpace=wrap;html=1;" vertex="1" parent="1">
                    <mxGeometry x="530" y="350" width="40" height="40" as="geometry"/>
                </mxCell>
                <mxCell id="58" value="26" style="rounded=0;whiteSpace=wrap;html=1;" vertex="1" parent="1">
                    <mxGeometry x="530" y="450" width="40" height="40" as="geometry"/>
                </mxCell>
                <mxCell id="59" value="53" style="rounded=0;whiteSpace=wrap;html=1;" vertex="1" parent="1">
                    <mxGeometry x="530" y="500" width="40" height="40" as="geometry"/>
                </mxCell>
                <mxCell id="60" value="2" style="rounded=0;whiteSpace=wrap;html=1;" vertex="1" parent="1">
                    <mxGeometry x="530" y="250" width="40" height="40" as="geometry"/>
                </mxCell>
                <mxCell id="61" value="17" style="rounded=0;whiteSpace=wrap;html=1;" vertex="1" parent="1">
                    <mxGeometry x="530" y="550" width="40" height="40" as="geometry"/>
                </mxCell>
                <mxCell id="62" value="" style="rounded=0;whiteSpace=wrap;html=1;" vertex="1" parent="1">
                    <mxGeometry x="680" y="160" width="140" height="500" as="geometry"/>
                </mxCell>
                <mxCell id="63" value="5" style="rounded=0;whiteSpace=wrap;html=1;" vertex="1" parent="1">
                    <mxGeometry x="770" y="350" width="40" height="40" as="geometry"/>
                </mxCell>
                <mxCell id="64" value="8" style="rounded=0;whiteSpace=wrap;html=1;" vertex="1" parent="1">
                    <mxGeometry x="770" y="400" width="40" height="40" as="geometry"/>
                </mxCell>
                <mxCell id="65" value="11" style="rounded=0;whiteSpace=wrap;html=1;" vertex="1" parent="1">
                    <mxGeometry x="690" y="300" width="40" height="40" as="geometry"/>
                </mxCell>
                <mxCell id="66" value="1" style="rounded=0;whiteSpace=wrap;html=1;" vertex="1" parent="1">
                    <mxGeometry x="770" y="250" width="40" height="40" as="geometry"/>
                </mxCell>
                <mxCell id="67" value="14" style="rounded=0;whiteSpace=wrap;html=1;" vertex="1" parent="1">
                    <mxGeometry x="690" y="250" width="40" height="40" as="geometry"/>
                </mxCell>
                <mxCell id="68" value="26" style="rounded=0;whiteSpace=wrap;html=1;" vertex="1" parent="1">
                    <mxGeometry x="690" y="350" width="40" height="40" as="geometry"/>
                </mxCell>
                <mxCell id="69" value="53" style="rounded=0;whiteSpace=wrap;html=1;" vertex="1" parent="1">
                    <mxGeometry x="690" y="400" width="40" height="40" as="geometry"/>
                </mxCell>
                <mxCell id="70" value="2" style="rounded=0;whiteSpace=wrap;html=1;" vertex="1" parent="1">
                    <mxGeometry x="770" y="300" width="40" height="40" as="geometry"/>
                </mxCell>
                <mxCell id="71" value="17" style="rounded=0;whiteSpace=wrap;html=1;" vertex="1" parent="1">
                    <mxGeometry x="690" y="450" width="40" height="40" as="geometry"/>
                </mxCell>
                <mxCell id="72" value="" style="rounded=0;whiteSpace=wrap;html=1;" vertex="1" parent="1">
                    <mxGeometry x="840" y="160" width="140" height="500" as="geometry"/>
                </mxCell>
                <mxCell id="73" value="5" style="rounded=0;whiteSpace=wrap;html=1;" vertex="1" parent="1">
                    <mxGeometry x="930" y="450" width="40" height="40" as="geometry"/>
                </mxCell>
                <mxCell id="74" value="8" style="rounded=0;whiteSpace=wrap;html=1;" vertex="1" parent="1">
                    <mxGeometry x="930" y="500" width="40" height="40" as="geometry"/>
                </mxCell>
                <mxCell id="75" value="11" style="rounded=0;whiteSpace=wrap;html=1;" vertex="1" parent="1">
                    <mxGeometry x="850" y="300" width="40" height="40" as="geometry"/>
                </mxCell>
                <mxCell id="76" value="1" style="rounded=0;whiteSpace=wrap;html=1;" vertex="1" parent="1">
                    <mxGeometry x="930" y="350" width="40" height="40" as="geometry"/>
                </mxCell>
                <mxCell id="77" value="14" style="rounded=0;whiteSpace=wrap;html=1;" vertex="1" parent="1">
                    <mxGeometry x="850" y="250" width="40" height="40" as="geometry"/>
                </mxCell>
                <mxCell id="78" value="26" style="rounded=0;whiteSpace=wrap;html=1;" vertex="1" parent="1">
                    <mxGeometry x="930" y="300" width="40" height="40" as="geometry"/>
                </mxCell>
                <mxCell id="79" value="53" style="rounded=0;whiteSpace=wrap;html=1;" vertex="1" parent="1">
                    <mxGeometry x="930" y="250" width="40" height="40" as="geometry"/>
                </mxCell>
                <mxCell id="80" value="2" style="rounded=0;whiteSpace=wrap;html=1;" vertex="1" parent="1">
                    <mxGeometry x="930" y="400" width="40" height="40" as="geometry"/>
                </mxCell>
                <mxCell id="81" value="17" style="rounded=0;whiteSpace=wrap;html=1;" vertex="1" parent="1">
                    <mxGeometry x="850" y="350" width="40" height="40" as="geometry"/>
                </mxCell>
                <mxCell id="82" value="" style="rounded=0;whiteSpace=wrap;html=1;" vertex="1" parent="1">
                    <mxGeometry x="1000" y="160" width="140" height="500" as="geometry"/>
                </mxCell>
                <mxCell id="83" value="5" style="rounded=0;whiteSpace=wrap;html=1;" vertex="1" parent="1">
                    <mxGeometry x="1090" y="450" width="40" height="40" as="geometry"/>
                </mxCell>
                <mxCell id="84" value="8" style="rounded=0;whiteSpace=wrap;html=1;" vertex="1" parent="1">
                    <mxGeometry x="1090" y="500" width="40" height="40" as="geometry"/>
                </mxCell>
                <mxCell id="85" value="11" style="rounded=0;whiteSpace=wrap;html=1;" vertex="1" parent="1">
                    <mxGeometry x="1010" y="300" width="40" height="40" as="geometry"/>
                </mxCell>
                <mxCell id="86" value="1" style="rounded=0;whiteSpace=wrap;html=1;" vertex="1" parent="1">
                    <mxGeometry x="1090" y="350" width="40" height="40" as="geometry"/>
                </mxCell>
                <mxCell id="87" value="14" style="rounded=0;whiteSpace=wrap;html=1;" vertex="1" parent="1">
                    <mxGeometry x="1010" y="250" width="40" height="40" as="geometry"/>
                </mxCell>
                <mxCell id="88" value="26" style="rounded=0;whiteSpace=wrap;html=1;" vertex="1" parent="1">
                    <mxGeometry x="1090" y="250" width="40" height="40" as="geometry"/>
                </mxCell>
                <mxCell id="89" value="53" style="rounded=0;whiteSpace=wrap;html=1;" vertex="1" parent="1">
                    <mxGeometry x="1090" y="300" width="40" height="40" as="geometry"/>
                </mxCell>
                <mxCell id="90" value="2" style="rounded=0;whiteSpace=wrap;html=1;" vertex="1" parent="1">
                    <mxGeometry x="1090" y="400" width="40" height="40" as="geometry"/>
                </mxCell>
                <mxCell id="91" value="17" style="rounded=0;whiteSpace=wrap;html=1;" vertex="1" parent="1">
                    <mxGeometry x="1010" y="350" width="40" height="40" as="geometry"/>
                </mxCell>
                <mxCell id="92" value="" style="rounded=0;whiteSpace=wrap;html=1;" vertex="1" parent="1">
                    <mxGeometry x="1160" y="160" width="140" height="500" as="geometry"/>
                </mxCell>
                <mxCell id="93" value="5" style="rounded=0;whiteSpace=wrap;html=1;" vertex="1" parent="1">
                    <mxGeometry x="1252" y="350" width="40" height="40" as="geometry"/>
                </mxCell>
                <mxCell id="94" value="8" style="rounded=0;whiteSpace=wrap;html=1;" vertex="1" parent="1">
                    <mxGeometry x="1252" y="400" width="40" height="40" as="geometry"/>
                </mxCell>
                <mxCell id="95" value="11" style="rounded=0;whiteSpace=wrap;html=1;" vertex="1" parent="1">
                    <mxGeometry x="1170" y="300" width="40" height="40" as="geometry"/>
                </mxCell>
                <mxCell id="96" value="1" style="rounded=0;whiteSpace=wrap;html=1;" vertex="1" parent="1">
                    <mxGeometry x="1252" y="250" width="40" height="40" as="geometry"/>
                </mxCell>
                <mxCell id="97" value="14" style="rounded=0;whiteSpace=wrap;html=1;" vertex="1" parent="1">
                    <mxGeometry x="1170" y="250" width="40" height="40" as="geometry"/>
                </mxCell>
                <mxCell id="98" value="26" style="rounded=0;whiteSpace=wrap;html=1;" vertex="1" parent="1">
                    <mxGeometry x="1170" y="400" width="40" height="40" as="geometry"/>
                </mxCell>
                <mxCell id="99" value="53" style="rounded=0;whiteSpace=wrap;html=1;" vertex="1" parent="1">
                    <mxGeometry x="1170" y="450" width="40" height="40" as="geometry"/>
                </mxCell>
                <mxCell id="100" value="2" style="rounded=0;whiteSpace=wrap;html=1;" vertex="1" parent="1">
                    <mxGeometry x="1252" y="300" width="40" height="40" as="geometry"/>
                </mxCell>
                <mxCell id="101" value="17" style="rounded=0;whiteSpace=wrap;html=1;" vertex="1" parent="1">
                    <mxGeometry x="1170" y="350" width="40" height="40" as="geometry"/>
                </mxCell>
                <mxCell id="102" value="" style="rounded=0;whiteSpace=wrap;html=1;" vertex="1" parent="1">
                    <mxGeometry x="1320" y="160" width="140" height="500" as="geometry"/>
                </mxCell>
                <mxCell id="103" value="5" style="rounded=0;whiteSpace=wrap;html=1;" vertex="1" parent="1">
                    <mxGeometry x="1330" y="300" width="40" height="40" as="geometry"/>
                </mxCell>
                <mxCell id="104" value="8" style="rounded=0;whiteSpace=wrap;html=1;" vertex="1" parent="1">
                    <mxGeometry x="1330" y="350" width="40" height="40" as="geometry"/>
                </mxCell>
                <mxCell id="105" value="11" style="rounded=0;whiteSpace=wrap;html=1;" vertex="1" parent="1">
                    <mxGeometry x="1330" y="450" width="40" height="40" as="geometry"/>
                </mxCell>
                <mxCell id="106" value="1" style="rounded=0;whiteSpace=wrap;html=1;" vertex="1" parent="1">
                    <mxGeometry x="1330" y="200" width="40" height="40" as="geometry"/>
                </mxCell>
                <mxCell id="107" value="14" style="rounded=0;whiteSpace=wrap;html=1;" vertex="1" parent="1">
                    <mxGeometry x="1330" y="400" width="40" height="40" as="geometry"/>
                </mxCell>
                <mxCell id="108" value="26" style="rounded=0;whiteSpace=wrap;html=1;" vertex="1" parent="1">
                    <mxGeometry x="1330" y="550" width="40" height="40" as="geometry"/>
                </mxCell>
                <mxCell id="109" value="53" style="rounded=0;whiteSpace=wrap;html=1;" vertex="1" parent="1">
                    <mxGeometry x="1330" y="600" width="40" height="40" as="geometry"/>
                </mxCell>
                <mxCell id="110" value="2" style="rounded=0;whiteSpace=wrap;html=1;" vertex="1" parent="1">
                    <mxGeometry x="1330" y="250" width="40" height="40" as="geometry"/>
                </mxCell>
                <mxCell id="111" value="17" style="rounded=0;whiteSpace=wrap;html=1;" vertex="1" parent="1">
                    <mxGeometry x="1330" y="500" width="40" height="40" as="geometry"/>
                </mxCell>
            </root>
        </mxGraphModel>
    </diagram>
</mxfile>